<?xml version="1.0" encoding="UTF-8"?>
<svg data-bbox="99.156 100.865 1030.676 479.987" xmlns="http://www.w3.org/2000/svg" viewBox="0 0 1236.2 678.027" height="678.027" width="1236.2" data-type="color">
    <g>
        <path d="M99.156 100.865v478.443c172.98 15.65 377.944-88.327 377.944-281.911V100.865z" fill="#231f20" data-color="1"/>
        <path d="M136.742 367.872h5.294v-35.846h11.47v-4.853h-28.233v4.853h11.466z" fill="#ffffff" data-color="2"/>
        <path d="M164.359 350.415c.054-4.512 2.426-6.645 6.314-6.697 3.885.057 6.084 2.11 6.144 6.697v17.457h5.076v-18.12c.002-3.193-.955-5.875-2.757-7.755-1.806-1.879-4.428-2.912-7.627-2.912-2.733-.006-5.184.824-7.15 2.577v-14.489h-5.075v40.7h5.075z" fill="#ffffff" data-color="2"/>
        <path d="M199.842 343.547c2.693.003 4.928 1.487 5.908 3.787h-.002c.536 1.327.659 2.027.767 3.83H193.17c.104-1.803.228-2.503.764-3.83.972-2.297 3.212-3.784 5.908-3.787m.722 24.66h.087c4.733 0 7.51-1.566 10.31-4.388l.402-.403-3.53-3.098-.353.354c-2.141 2.114-3.74 2.943-6.804 2.962-4.797-.048-7.314-2.886-7.523-8.398h18.466v-2.368c0-4.151-1.067-7.594-3.098-10.017-2.027-2.422-5.02-3.772-8.68-3.765-3.61-.007-6.608 1.363-8.644 3.892-2.042 2.527-3.134 6.159-3.134 10.668 0 4.924 1.204 8.578 3.41 11.005 2.205 2.43 5.373 3.561 9.091 3.556" fill="#ffffff" data-color="2"/>
        <path d="m155.947 410.654.105-.624h-5.292l-.09.42c-1.04 4.648-4.29 7.577-8.998 7.597-2.482 0-4.849-.956-6.465-2.624-2.338-2.385-2.629-4.876-2.632-13.208.003-8.332.294-10.822 2.63-13.209 1.618-1.67 3.985-2.622 6.467-2.622 4.706.021 7.843 2.937 8.884 7.595l.09.422h5.411l-.113-.628c-1.348-7.677-6.92-12.267-14.272-12.243-4.029 0-7.738 1.503-10.51 4.278-3.902 3.9-3.889 8.047-3.883 16.407-.006 8.356-.02 12.507 3.883 16.408 2.772 2.774 6.481 4.276 10.51 4.276l.052.001c7.268 0 12.93-4.581 14.223-12.246" fill="#ffffff" data-color="2"/>
        <path d="M180.6 405.11v17.454h5.078v-18.12c.003-3.195-.953-5.877-2.757-7.755-1.803-1.878-4.43-2.912-7.63-2.91-2.73-.005-5.18.822-7.146 2.574v-14.488h-5.076v40.7h5.076V405.11c.052-4.516 2.428-6.65 6.313-6.704 3.886.059 6.083 2.113 6.143 6.704" fill="#ffffff" data-color="2"/>
        <path d="M202.68 418.379c-4.264-.09-5.692-1.263-5.757-4.141.06-2.891 1.588-4.232 5.59-4.31h7.148v2.418c.003 2.22-.446 3.624-1.222 4.342-1.578 1.521-3.428 1.687-5.759 1.69m-9.551-20.33-.3.386 3.533 3.247.35-.494c1.56-2.154 3.027-2.86 6.468-2.892 4.883.098 6.393 1.686 6.481 5.478v2.083h-7.705c-3.148 0-5.649.802-7.376 2.287-1.727 1.48-2.626 3.636-2.62 6.15.002 2.287.757 4.478 2.215 5.943 1.839 1.908 4.277 2.67 8.116 2.663l.147.001c3.153 0 5.25-.616 7.223-2.267v1.93h5.074V403.44c.008-3.082-.951-5.554-2.916-7.207-1.962-1.652-4.836-2.456-8.584-2.456-4.501-.023-7.572.956-10.106 4.27" fill="#ffffff" data-color="2"/>
        <path d="M227.428 405.222c.03-3.968 2.346-6.799 6.033-6.816 2.038.025 2.881.407 4.356 1.848l.381.379.375-.384 3.322-3.383-.373-.373c-2.035-2.048-4.256-2.728-6.948-2.714-2.75.002-5.39.986-7.146 2.723v-2.39h-5.076v28.452h5.076z" fill="#ffffff" data-color="2"/>
        <path d="M247.846 414.683c0 2.132.613 4.101 1.89 5.55 1.27 1.45 3.196 2.334 5.658 2.331h3.372v-4.517h-2.647c-2.313-.067-3.123-1.128-3.197-3.475v-16.166h5.844v-4.127h-5.844v-8.573h-5.076v8.57l-3.45.003v4.127h3.45z" fill="#ffffff" data-color="2"/>
        <path d="M274.653 398.237c2.693.005 4.928 1.489 5.907 3.788.536 1.326.66 2.028.764 3.83H267.98c.103-1.802.23-2.504.764-3.83.974-2.296 3.214-3.783 5.908-3.788m11.521 19.87-3.53-3.096-.352.353c-2.14 2.112-3.74 2.94-6.804 2.96-4.799-.048-7.315-2.886-7.524-8.398h18.468v-2.366c0-4.154-1.067-7.595-3.096-10.017-2.031-2.42-5.022-3.769-8.683-3.764-3.61-.008-6.606 1.362-8.646 3.892-2.042 2.526-3.13 6.158-3.132 10.668 0 4.924 1.204 8.576 3.41 11.002 2.204 2.43 5.37 3.562 9.092 3.559h.087c4.733 0 7.51-1.565 10.31-4.39z" fill="#ffffff" data-color="2"/>
        <path d="M298.12 405.222c.031-3.968 2.347-6.799 6.035-6.816 2.035.025 2.88.407 4.355 1.848l.378.379.38-.384 3.32-3.383-.373-.373c-2.035-2.048-4.256-2.728-6.945-2.714-2.752.002-5.392.986-7.15 2.723v-2.39h-5.073v28.452h5.074z" fill="#ffffff" data-color="2"/>
        <path d="M332.48 405.855h-13.344c.105-1.802.228-2.504.765-3.83.975-2.296 3.21-3.783 5.906-3.788 2.694.005 4.931 1.489 5.907 3.788.536 1.326.662 2.028.766 3.83m-6.673-12.076c-3.61-.008-6.606 1.362-8.646 3.892-2.04 2.526-3.132 6.158-3.132 10.668 0 4.924 1.204 8.576 3.411 11.002 2.204 2.43 5.373 3.562 9.093 3.559h.088c4.73 0 7.507-1.565 10.307-4.39l.4-.403-3.53-3.096-.352.353c-2.14 2.112-3.737 2.94-6.802 2.96-4.799-.048-7.319-2.886-7.525-8.398h18.466v-2.366c0-4.154-1.065-7.595-3.095-10.017-2.03-2.42-5.02-3.769-8.683-3.764" fill="#ffffff" data-color="2"/>
        <path d="M361.124 408.338c.002 2.642-.232 5.193-1.136 7-.914 1.792-2.353 2.907-5.178 2.933-5.497-.012-6.312-4.56-6.37-9.933.058-5.375.873-9.92 6.37-9.932 2.825.025 4.264 1.141 5.178 2.933.904 1.803 1.138 4.355 1.136 6.999m0-26.473v14.542c-2.109-2.086-4.542-2.645-7.204-2.629-2.905.003-5.477.975-7.058 2.55-2.961 2.985-3.487 7.683-3.496 12.01.01 4.324.535 9.024 3.496 12.009 1.581 1.574 4.153 2.549 7.058 2.552l.107.001c2.628 0 5.061-.617 7.152-2.725v2.388h5.017v-40.698z" fill="#ffffff" data-color="2"/>
        <path d="M135.247 477.255v-40.697h-5.299v40.697z" fill="#ffffff" data-color="2"/>
        <path d="M147.996 459.858c.055-4.579 2.372-6.705 6.257-6.76 3.886.057 6.139 2.117 6.2 6.76v17.397h5.076V459.19c.003-3.27-.93-6.005-3.002-8.012-1.78-1.78-4.33-2.71-7.386-2.71-2.727-.003-5.205.861-7.145 2.581v-2.247h-5.077v28.452h5.077z" fill="#ffffff" data-color="2"/>
        <path d="m185.862 460.774-4.4-.39c-3.35-.346-4.24-1.394-4.301-3.477.03-2.445 1.704-3.917 5.592-3.976 2.757.003 5.134.65 6.966 2.062l.37.286 3.363-3.366-.455-.372c-2.584-2.112-6.211-3.07-10.188-3.07-6 .006-10.599 3.178-10.61 8.547-.047 4.782 3.209 7.489 8.672 7.881l4.508.388c3.058.34 4.019 1.34 4.076 3.477-.005 2.821-2.32 4.26-6.757 4.31-3.31-.006-6.084-.858-8.132-3.008l-.377-.4-3.441 3.445.39.376c3.106 3 6.89 4.102 11.563 4.102h.052c6.753-.009 11.654-3.22 11.665-8.88.05-5.422-3.693-7.553-8.556-7.935" fill="#ffffff" data-color="2"/>
        <path d="M212.063 472.739h-2.648c-2.312-.063-3.121-1.128-3.197-3.473v-16.17l5.845.003v-4.129h-5.845v-8.57h-5.072v8.57h-3.454v4.13h3.45l.004 16.276c0 2.132.613 4.101 1.886 5.55 1.264 1.447 3.188 2.331 5.636 2.331h3.395z" fill="#ffffff" data-color="2"/>
        <path d="M221.3 442.356a3.075 3.075 0 0 0 3.066-3.067c0-1.687-1.38-3.065-3.066-3.065s-3.067 1.378-3.067 3.065a3.075 3.075 0 0 0 3.067 3.067" fill="#ffffff" data-color="2"/>
        <path d="M223.808 448.803h-5.073v28.452h5.073z" fill="#ffffff" data-color="2"/>
        <path d="M244.125 453.1v-4.13h-5.846l.003-8.57h-5.074v8.57h-3.454v4.13h3.454v16.276c0 2.132.613 4.101 1.886 5.55 1.267 1.447 3.188 2.331 5.639 2.331h3.392v-4.518h-2.648c-2.312-.063-3.12-1.128-3.195-3.473v-16.17z" fill="#ffffff" data-color="2"/>
        <path d="M268.107 466.206c-.056 4.57-2.428 6.7-6.314 6.753-3.882-.058-6.08-2.105-6.145-6.753v-17.403h-5.076v18.012c-.002 3.259.87 6.048 2.948 8.065 1.784 1.785 4.386 2.712 7.44 2.71h.021c2.727 0 5.234-.906 7.182-2.635v2.301h5.02v-28.453h-5.076z" fill="#ffffff" data-color="2"/>
        <path d="M287.6 440.4h-5.075v8.57h-3.45v4.13h3.45v16.276c0 2.132.613 4.101 1.887 5.55 1.266 1.447 3.187 2.331 5.638 2.331h3.395v-4.518h-2.65c-2.312-.063-3.12-1.128-3.196-3.473v-16.17l5.846.003v-4.129h-5.846z" fill="#ffffff" data-color="2"/>
        <path d="M316.115 460.548H302.77c.105-1.804.23-2.5.765-3.829.975-2.298 3.213-3.782 5.91-3.786 2.693.004 4.932 1.488 5.906 3.794h.001c.533 1.323.657 2.021.763 3.821m-6.67-12.078c-3.613-.008-6.609 1.364-8.65 3.895-2.04 2.525-3.13 6.157-3.13 10.667-.003 4.923 1.202 8.576 3.407 11.001 2.208 2.431 5.375 3.562 9.094 3.559h.086c4.735 0 7.512-1.567 10.312-4.388l.401-.403-3.532-3.1-.353.353c-2.139 2.115-3.737 2.942-6.801 2.96-4.799-.045-7.317-2.883-7.528-8.392h18.468v-2.372c0-4.15-1.066-7.593-3.094-10.015-2.029-2.421-5.02-3.77-8.68-3.765" fill="#ffffff" data-color="2"/>
        <path d="M132.029 493.47c-1.26 1.45-1.857 3.42-1.857 5.55v4.642h-3.506v4.127h3.506v24.16h5.075v-24.16h5.844v-4.127h-5.844v-4.533c.079-2.361.832-3.407 3.142-3.475h2.702v-4.516h-3.428c-2.46-.005-4.379.879-5.634 2.332" fill="#ffffff" data-color="2"/>
        <path d="M162.735 517.723c.013 3.05-.21 6.31-2.015 8.082-1.173 1.174-2.816 1.847-4.632 1.847-1.816-.004-3.394-.667-4.577-1.847-1.81-1.777-2.083-5.04-2.07-8.082-.013-3.047.263-6.31 2.07-8.082 1.183-1.184 2.761-1.847 4.577-1.851 1.816 0 3.456.673 4.632 1.85 1.805 1.768 2.028 5.03 2.015 8.083m-6.647-14.561c-3.472-.003-6.245 1.285-8.225 3.273-2.943 3.004-3.497 7.023-3.497 11.288 0 4.261.554 8.281 3.494 11.281 1.983 1.992 4.756 3.28 8.228 3.277h.012c3.464 0 6.235-1.288 8.213-3.273l-.376-.377.382.373c2.935-3 3.491-7.02 3.491-11.281 0-4.265-.556-8.284-3.491-11.284-1.987-1.992-4.762-3.28-8.23-3.277" fill="#ffffff" data-color="2"/>
        <path d="M186.203 503.162c-2.749.003-5.39.987-7.147 2.727v-2.395h-5.076v28.455h5.076v-17.343c.03-3.973 2.346-6.8 6.035-6.817 2.036.025 2.876.406 4.354 1.849l.38.381.378-.384 3.319-3.386-.373-.371c-2.034-2.052-4.254-2.73-6.946-2.716" fill="#ffffff" data-color="2"/>
        <path d="M210.83 531.95h5.298v-40.7h-5.299z" fill="#ffffff" data-color="2"/>
        <path d="M222.465 496.1h11.465v35.85h5.3V496.1h11.465v-4.85h-28.23z" fill="#ffffff" data-color="2"/>
        <path d="M330.708 145.747h-57.01c-9.054 0-17.708 3.31-24.364 9.322-6.95 6.242-10.768 14.643-10.755 23.654v32.69c0 9.307 3.62 17.27 10.759 23.665 6.622 6.004 15.275 9.31 24.36 9.31h57.01c3.908 0 6.742-2.797 6.742-6.65v-5.972c0-3.854-2.834-6.652-6.742-6.652h-56.79c-9.155-.146-16.063-6.036-16.063-13.7v-32.692c0-8.196 8.241-13.7 15.94-13.7h56.913c3.844 0 6.742-2.86 6.742-6.651v-5.972c0-3.855-2.834-6.652-6.742-6.652" fill="#ffffff" data-color="2"/>
        <path d="M441.125 145.747h-67.488c-17.3 0-25.359 8.058-25.359 25.36v7.388c0 17.044 8.058 24.983 25.36 24.983h52.023c3.47 0 5.898 2.425 5.898 5.895v9.845c0 3.416-2.482 5.896-5.898 5.896H356.82c-3.856 0-6.652 2.798-6.652 6.652v5.972c0 3.855 2.796 6.652 6.652 6.652h68.653c17.302 0 25.36-8.059 25.36-25.36v-9.467c0-17.303-8.058-25.361-25.36-25.361H373.45c-3.417 0-5.897-2.48-5.897-5.896v-7.388c0-3.417 2.48-5.896 5.897-5.896h67.676c3.792 0 6.652-2.86 6.652-6.651v-5.972c0-3.855-2.797-6.652-6.652-6.652" fill="#ffffff" data-color="2"/>
        <path d="M147.532 165.022h44.334c7.725 0 16.062 5.238 16.062 13.7v32.691c0 8.464-8.337 13.701-16.062 13.701h-44.334zm0-64.157h-19.274v137.16c0 3.569 2.962 6.365 6.743 6.365h57.01c9.047 0 17.496-3.22 24.433-9.31 6.837-6.003 10.76-14.63 10.76-23.667v-32.69c0-9.029-3.82-17.43-10.757-23.659-6.67-6.008-15.348-9.317-24.436-9.317h-44.479z" fill="#ffffff" data-color="2"/>
        <path d="m605.652 244.369-28.073-42.747v42.747h-9.216v-60.751h8.448l28.073 42.662v-42.662h9.214v60.75z" fill="#231f20" data-color="1"/>
        <path d="M644.05 210.836c-1.622-1.621-3.84-2.475-6.4-2.475s-4.694.854-6.314 2.475c-2.645 2.645-2.988 7.168-2.988 11.86 0 4.693.343 9.215 2.988 11.86 1.62 1.622 3.753 2.56 6.313 2.56s4.779-.938 6.4-2.56c2.645-2.645 2.987-7.167 2.987-11.86s-.342-9.215-2.987-11.86m6.57 28.926c-2.815 2.9-7.082 5.118-12.97 5.118-5.886 0-10.067-2.218-12.883-5.118-4.095-4.267-5.12-9.728-5.12-17.066 0-7.252 1.025-12.713 5.12-16.98 2.816-2.9 6.997-5.118 12.883-5.118 5.888 0 10.155 2.218 12.97 5.118 4.097 4.267 5.12 9.728 5.12 16.98 0 7.338-1.023 12.8-5.12 17.066" fill="#231f20" data-color="1"/>
        <path d="M685.434 211.263c-1.963-1.963-3.499-2.902-6.484-2.902-4.694 0-8.619 3.755-8.619 9.728v26.28h-8.704v-43.26h8.534v4.692c2.218-3.07 6.655-5.203 11.518-5.203 4.181 0 7.338 1.109 10.325 4.094z" fill="#231f20" data-color="1"/>
        <path d="M712.91 244.369c-8.105 0-11.86-5.802-11.86-12.03v-23.807h-4.947v-6.654h4.947v-13.141h8.704v13.14h8.363v6.655h-8.363v23.38c0 3.157 1.535 5.034 4.777 5.034h3.586v7.423z" fill="#231f20" data-color="1"/>
        <path d="M751.139 244.369v-26.536c0-6.57-3.84-9.472-8.703-9.472-4.864 0-8.789 2.987-8.789 9.472v26.536h-8.702v-60.751h8.702v21.843c2.987-3.243 6.912-4.863 11.178-4.863 9.641 0 15.017 6.483 15.017 15.87v27.9z" fill="#231f20" data-color="1"/>
        <path d="M792.268 213.31c-1.366-3.242-4.437-5.46-8.534-5.46-4.095 0-7.252 2.218-8.616 5.46-.855 1.963-1.025 3.243-1.11 5.888h19.453c-.085-2.645-.34-3.925-1.193-5.887m-18.26 11.945c0 7.423 3.925 12.117 11.006 12.117 4.865 0 7.425-1.366 10.495-4.438l5.547 5.204c-4.437 4.438-8.617 6.741-16.213 6.741-10.834 0-19.453-5.717-19.453-22.184 0-13.993 7.252-22.098 18.344-22.098 11.606 0 18.346 8.531 18.346 20.818v3.84z" fill="#231f20" data-color="1"/>
        <path d="M832.03 211.263c-1.963-1.963-3.499-2.902-6.484-2.902-4.693 0-8.618 3.755-8.618 9.728v26.28h-8.703v-43.26h8.532v4.692c2.219-3.07 6.656-5.203 11.52-5.203 4.18 0 7.338 1.109 10.323 4.094z" fill="#231f20" data-color="1"/>
        <path d="M868.381 244.369v-26.365c0-6.741-3.84-9.643-8.704-9.643-4.862 0-8.958 2.987-8.958 9.643v26.365h-8.704v-43.26h8.533v4.352c2.987-3.243 7.168-4.863 11.518-4.863 4.439 0 8.107 1.449 10.666 3.924 3.329 3.242 4.351 7.338 4.351 12.202v27.645z" fill="#231f20" data-color="1"/>
        <path d="M901.745 244.369v-60.751h9.216v60.75z" fill="#231f20" data-color="1"/>
        <path d="M941.764 211.263c-1.962-1.963-3.498-2.902-6.483-2.902-4.694 0-8.619 3.755-8.619 9.728v26.28h-8.704v-43.26h8.534v4.692c2.218-3.07 6.655-5.203 11.518-5.203 4.181 0 7.338 1.109 10.325 4.094z" fill="#231f20" data-color="1"/>
        <path d="M974.105 213.31c-1.367-3.242-4.437-5.46-8.534-5.46-4.095 0-7.252 2.218-8.618 5.46-.853 1.963-1.024 3.243-1.109 5.888h19.454c-.085-2.645-.341-3.925-1.193-5.887m-18.26 11.945c0 7.423 3.924 12.117 11.005 12.117 4.866 0 7.426-1.366 10.496-4.438l5.547 5.204c-4.437 4.438-8.617 6.741-16.213 6.741-10.836 0-19.453-5.717-19.453-22.184 0-13.993 7.252-22.098 18.344-22.098 11.605 0 18.346 8.531 18.346 20.818v3.84z" fill="#231f20" data-color="1"/>
        <path d="M1002.775 244.369c-8.276 0-11.861-5.546-11.861-11.946v-48.805h8.704v48.293c0 3.328 1.194 5.035 4.693 5.035h3.84v7.423z" fill="#231f20" data-color="1"/>
        <path d="M1037.76 225.256h-10.154c-5.12 0-7.766 2.304-7.766 6.229 0 3.924 2.476 6.144 7.937 6.144 3.328 0 5.801-.256 8.105-2.475 1.28-1.28 1.877-3.328 1.877-6.4zm.17 19.113v-3.926c-3.157 3.158-6.144 4.437-11.52 4.437-5.374 0-8.958-1.28-11.603-3.923-2.219-2.304-3.414-5.634-3.414-9.302 0-7.253 5.035-12.457 14.933-12.457h11.433v-3.071c0-5.462-2.73-8.107-9.471-8.107-4.779 0-7.082 1.11-9.47 4.181l-5.718-5.376c4.096-4.778 8.362-6.227 15.529-6.227 11.861 0 17.833 5.033 17.833 14.846v28.925z" fill="#231f20" data-color="1"/>
        <path d="M1079.741 244.369v-26.365c0-6.741-3.84-9.643-8.702-9.643-4.864 0-8.96 2.987-8.96 9.643v26.365h-8.703v-43.26h8.532v4.352c2.987-3.243 7.168-4.863 11.52-4.863 4.436 0 8.105 1.449 10.665 3.924 3.328 3.242 4.352 7.338 4.352 12.202v27.645z" fill="#231f20" data-color="1"/>
        <path d="M1112.168 208.361c-7.849 0-9.045 6.656-9.045 14.335s1.196 14.42 9.045 14.42 8.96-6.74 8.96-14.42-1.11-14.335-8.96-14.335m9.13 36.008v-4.607c-3.242 3.924-6.74 5.118-11.434 5.118-4.352 0-8.192-1.45-10.58-3.838-4.351-4.353-4.863-11.776-4.863-18.346s.512-13.908 4.864-18.26c2.387-2.39 6.143-3.838 10.494-3.838 4.61 0 8.192 1.109 11.349 4.863v-21.843h8.704v60.75z" fill="#231f20" data-color="1"/>
        <path d="M592.084 302.907h-14.505v18.517h14.505c6.4 0 9.982-3.925 9.982-9.301s-3.582-9.216-9.982-9.216m-.852-25.682h-13.653v17.406h13.653c5.886 0 9.896-3.072 9.896-8.702 0-5.632-4.01-8.704-9.896-8.704m1.705 52.475h-24.574v-60.75H592c11.262 0 18.345 6.398 18.345 16.637 0 6.57-4.097 11.263-8.192 12.884 4.692 1.877 9.13 6.4 9.13 14.078 0 11.179-7.595 17.15-18.346 17.15" fill="#231f20" data-color="1"/>
        <path d="M640.979 296.594c-1.963-1.963-3.499-2.901-6.484-2.901-4.693 0-8.619 3.754-8.619 9.727v26.28h-8.702v-43.26h8.532v4.693c2.218-3.07 6.656-5.204 11.52-5.204 4.18 0 7.338 1.11 10.323 4.094z" fill="#231f20" data-color="1"/>
        <path d="M674.343 310.587H664.19c-5.12 0-7.765 2.304-7.765 6.229 0 3.924 2.474 6.144 7.935 6.144 3.328 0 5.803-.256 8.106-2.475 1.28-1.28 1.878-3.328 1.878-6.4zm.17 19.113v-3.926c-3.158 3.158-6.143 4.438-11.519 4.438-5.374 0-8.958-1.28-11.604-3.924-2.218-2.304-3.413-5.633-3.413-9.301 0-7.253 5.033-12.457 14.932-12.457h11.434v-3.072c0-5.461-2.73-8.107-9.472-8.107-4.778 0-7.082 1.11-9.471 4.182l-5.718-5.376c4.098-4.779 8.364-6.228 15.53-6.228 11.86 0 17.834 5.033 17.834 14.846V329.7z" fill="#231f20" data-color="1"/>
        <path d="M716.154 329.7v-26.365c0-6.741-3.84-9.642-8.702-9.642-4.864 0-8.96 2.986-8.96 9.642V329.7h-8.704v-43.26h8.533v4.353c2.987-3.244 7.168-4.864 11.52-4.864 4.436 0 8.105 1.45 10.665 3.924 3.328 3.242 4.35 7.338 4.35 12.202V329.7z" fill="#231f20" data-color="1"/>
        <path d="M749.921 330.212c-9.726 0-19.283-5.973-19.283-22.185s9.557-22.098 19.283-22.098c5.973 0 10.155 1.705 14.25 6.057l-5.973 5.803c-2.73-2.987-4.862-4.096-8.277-4.096-3.326 0-6.142 1.365-8.02 3.84-1.877 2.389-2.56 5.46-2.56 10.494s.683 8.192 2.56 10.581c1.878 2.475 4.694 3.84 8.02 3.84 3.415 0 5.547-1.11 8.277-4.096l5.974 5.717c-4.096 4.35-8.278 6.143-14.25 6.143" fill="#231f20" data-color="1"/>
        <path d="M796.17 329.7v-26.536c0-6.57-3.84-9.471-8.704-9.471-4.863 0-8.788 2.986-8.788 9.471V329.7h-8.704v-60.75h8.704v21.843c2.986-3.244 6.91-4.864 11.177-4.864 9.642 0 15.017 6.484 15.017 15.87v27.9z" fill="#231f20" data-color="1"/>
    </g>
</svg>
