<?xml version="1.0" encoding="utf-8"?>
<!-- Generator: Adobe Illustrator 22.1.0, SVG Export Plug-In . SVG Version: 6.00 Build 0)  -->
<svg preserveAspectRatio="none" data-bbox="0 0.001 1500 412" xmlns="http://www.w3.org/2000/svg" viewBox="0 0.001 1500 412" height="412" width="1500" data-type="shape" role="presentation" aria-hidden="true" aria-label="">
    <g>
        <path d="M1201.17 399.324c-24.08 8.874-48.79 12.677-83 12.677-82.38 0-95.05-29.791-95.05-120.431V144.518h-48.789V88.739h50.059V12.677L1100.42.001v88.738h100.75v55.779h-100.75v128.036c0 72.893 0 90.007 64.64 90.007 8.73 0 18.86-.47 30.41-1.006 1.87-.086 3.76-.174 5.7-.262zM1422.7 408h77.3V15.01h-77.3zM941.398 305.32c0 71.624-74.767 102.683-186.293 102.683-48.789 0-117.223-9.508-169.815-24.721V318.63c53.226 20.283 101.384 31.059 157.144 31.059 84.912 0 121.662-9.508 121.662-41.2 0-27.23-49.005-31.33-106.913-36.175-83.629-6.996-185.833-15.548-185.833-97.567 0-69.723 74.77-103.95 186.29-103.95 38.018 0 103.283 6.971 158.416 17.747v59.581c-44.993-9.507-104.558-19.015-152.078-19.015-80.473 0-115.323 13.311-115.323 39.932 0 28.618 50.227 33.201 109.068 38.572 83.22 7.594 183.675 16.762 183.675 97.706M160.69 407.998h77.305v-81.132c0-115.36 45.623-187.619 119.759-187.619 64.632 0 91.879 42.468 91.879 141.982v126.769h77.305V270.454c0-131.207-43.722-188.252-133.7-189.52-93.78 0-141.937 63.384-154.609 140.714h-4.436l12.673-130.573H160.69zm-160.69 0V15.011h76.736c-3.07 18.122-27.832 60.603-69.827 71.834v4.23l70.396.05V408zM1269.25 91.075l70.39.05v316.873l-77.3.002V15.011h76.73c-3.07 18.122-27.83 60.603-69.82 71.834z" clip-rule="evenodd" fill-rule="evenodd"></path>
    </g>
</svg>