<?xml version="1.0" encoding="UTF-8"?>
<svg data-bbox="0 0 632 205.951" viewBox="0 0 632 205.951" xmlns="http://www.w3.org/2000/svg" data-type="color">
    <g>
        <path d="M19.27 133.019V8.514l30.617 124.505h31.742L112.44 7.579v125.44h19.613V0H95.03l-29.1 120.519L36.827 0H0v133.019zm170.545.984c12.276 0 23.428-4.921 31.742-13.09v12.155h18.488V37.991h-18.488v12.205c-8.314-8.17-19.466-13.09-31.742-13.09-25.677 0-46.463 21.653-46.463 48.473 0 26.574 20.786 48.424 46.463 48.424m1.908-17.519c-16.629 0-29.835-13.878-29.835-31.003s13.206-31.004 29.835-31.004 29.834 13.878 29.834 31.004-13.205 31.003-29.834 31.003M296.73 37.056c-26.264 0-45.339 20.128-45.339 46.358 0 19.192 11.543 34.596 23.966 40.649 19.074 9.301 28.514 1.919 41.768 13.09 6.798 5.708 9.831 13.681 9.831 22.44 0 15.945-12.668 28.691-28.319 28.691-16.042 0-28.709-12.746-28.709-29.478 0-9.104 3.228-16.732 6.994-21.85h-19.857c-3.766 6.447-5.674 14.468-5.674 22.637 0 25.492 20.982 46.358 47.051 46.358s47.05-20.915 47.05-46.358c0-15.797-7.728-29.477-19.857-37.843 12.081-8.17 20.199-21.85 20.004-37.647V37.99h-17.95v11.614c-8.119-7.775-18.879-12.549-30.959-12.549m1.907 75.442c-16.042 0-28.709-12.943-28.709-29.084s12.667-29.281 28.709-29.281 28.71 13.09 28.71 29.28-12.668 29.085-28.71 29.085m78.744 20.521v-53.59c0-14.272 10.76-25.098 24.161-25.098s24.161 10.826 24.161 25.098v53.591h18.487V78.493c0-24.901-16.238-41.437-38.931-41.437-10.956 0-20.982 5.118-27.976 13.484V37.991h-18.488v95.028zm98.795-111.563V0h-18.878v21.456zm-.195 111.563V37.991h-18.488v95.028zm43.089 0V54.723h17.167V37.991H519.07V0h-18.488v37.991h-17.167v16.732h17.167v78.296zm90.628-29.625c-6.065 9.694-13.988 13.09-24.161 13.09-14.184 0-25.873-10.088-28.906-23.572H632V85.48c0-26.968-21.177-48.67-47.393-48.67-26.068 0-47.392 21.652-47.392 48.67 0 26.82 21.715 48.67 48.371 48.67 20.395 0 37.61-12.549 44.947-30.807h-20.835zm-25.091-48.867c13.401 0 24.357 9.497 27.781 22.637h-55.512c3.375-13.14 14.33-22.637 27.731-22.637" fill="#222222" data-color="1"/>
    </g>
</svg>
