<?xml version="1.0" encoding="UTF-8"?>
<svg data-bbox="0.182 0.5 243.627 244" xmlns="http://www.w3.org/2000/svg" viewBox="0 0 244 245" height="245" width="244" data-type="ugc">
    <g>
        <path fill="#011548" d="M121.218 244.168a1.12 1.12 0 0 0 1.592 0l119.812-120.249c.216-.215.342-.508.342-.815 0-.305-.126-.599-.342-.814l-95.18-95.53a1.13 1.13 0 0 0-.801-.332H97.387c-.297 0-.585.12-.8.332l-95.18 95.53a1.15 1.15 0 0 0-.334.814c0 .307.117.6.333.815zM122.873.853a1.14 1.14 0 0 0-.818-.353 1.1 1.1 0 0 0-.819.353l-17.642 18.586a1.16 1.16 0 0 0-.225 1.25c.18.425.594.701 1.053.701h35.265c.459 0 .864-.276 1.044-.701.18-.426.09-.918-.225-1.25z" clip-rule="evenodd" fill-rule="evenodd"/>
        <path fill="url(#80f68eee-b5c4-4200-b5c1-1ed0cbf3ba7b)" d="M97.507 46.337q0-3.673 1.078-6.86 1.078-3.184 3.017-5.496 4.143-4.887 10.492-4.887 6.083 0 9.742 4.596 3.561 4.474 3.562 11.844 0 8.317-4.313 12.963-3.853 4.158-9.887 4.158-5.84 0-9.741-4.524-3.95-4.596-3.95-11.794m-18.312 3.376 6.179-6.202v19.144h-6.179zm55.95-19.404h6.18v32.346h-6.18zm18.311 7.862 6.18 6.196v17.68h-6.18zm-34.377 5.34-13.457 10.002q.175.26.366.51a7.6 7.6 0 0 0 2.544 2.15q1.48.768 3.017.767a6.2 6.2 0 0 0 2.872-.68q1.333-.682 2.399-2.044 2.398-3.112 2.398-8.147 0-1.35-.139-2.558m-1.815-5.562-.081-.125q-2.06-3.04-5.573-3.04-3.538 0-5.719 3.162-2.205 3.186-2.205 8.245 0 .927.085 1.788z"/>
        <path fill="#011548" d="M134.757 156.341c.706 1.965.694 3.897.398 5.612a14.5 14.5 0 0 1-1.162 3.639l-.032.05a668 668 0 0 1-5.264 6.04c-1.616 1.828-3.199 3.588-4.27 4.689-.832.854-2.242 1.179-3.641 1.284-1.627.122-3.276-.096-4.234-.508-1.352-.58-2.616-1.606-3.559-2.724-.611-.724-1.089-1.485-1.336-2.194-.072-.208-.141-.403-.163-.582a.84.84 0 0 1 .04-.414c1.172-3.02 2.264-5.139 3.294-7.672.431-1.06.852-2.192 1.264-3.483.539-1.696 1.281-3.781 2.14-5.616.591-1.262 1.227-2.405 1.903-3.17.82-.928 2.08-1.727 3.456-2.44 2.189-1.133 4.678-2.021 6.484-2.689 4.11-1.526 6.41-2.793 8.406-3.491.646-.225 1.255-.386 1.896-.459h.003l22.533-2.272c1.936-.224 7.045-1.647 12.621-3.394a388 388 0 0 0 10.993-3.621c3.28-1.14 5.959-2.145 7.269-2.678 1.528-.636 4.761-2.188 8.664-4.098 7.264-3.358 17.38-8.095 24.983-11.523 1.788-.807 2.942-1.212 4.381-1.838a.21.21 0 0 1 .233.044l9.376 9.213q.034.035.051.082a.2.2 0 0 1 .012.096l-.18 1.726a.22.22 0 0 1-.062.131l-52.799 53.195c-.065.262-.331 1.316-.487 1.69-3.321 7.937-7.393 11.813-8.617 12.835.645 2.054.477 4.527.032 6.246-.758 2.926-2.345 5.091-4.164 6.836-1.606 1.54-3.365 2.194-4.943 2.406.031 1.145-.034 2.288-.3 3.098-.43 1.31-1.65 3.073-3.041 4.543-1.383 1.461-2.91 2.618-3.691 2.982-1.344.625-3.143.837-4.83.761a17 17 0 0 1-.547-.033c-.221.908-.506 1.803-.854 2.409-1.065 1.856-4.874 5.535-9.377 5.663-.783.023-2.053-.207-3.218-.471-1.369 1.956-4.29 4.522-9.978 4.715-.62.021-1.358-.035-2.193-.16-2.002 1.776-5.031 3.409-9.57 3.482-.628.01-4.97.096-7.36-3.218-1.583.226-4.34.456-6.314-.241-1.347-.475-2.748-1.023-5.036-3.707-.665-.78-1.631-1.816-2.158-2.401l-2.319.779c-.457.18-2.21.281-4.092-.51-1.46-.615-3.478-1.548-5.522-3.961-1.865-2.201-4.247-4.465-5.426-6.37-.316-.509-1.08-1.733-1.323-2.306-1.238-.212-2.937-.505-4.896-1.564-2.243-1.211-4.603-3.264-5.564-5.777-1.301-3.404-2.23-6.417-2.876-8.349-.18-.541-2.39-6.034-2.722-6.856a.22.22 0 0 1 .015-.194.2.2 0 0 1 .163-.103l2.96-.273a.2.2 0 0 1 .15.045l.032.025c.503.42 1.091.953 1.739 1.549q.015.015.029.033c.312.437.629.886.963 1.34.544.739 1.096 1.452 1.727 2.131.654.704 1.366 1.334 2.164 1.849.553.358 1.164.616 1.786.844 1.315.466 2.602.804 3.87 1.261.5.18.996.378 1.49.618 1.233.594 2.984 1.427 4.532 2.319 1.026.591 1.962 1.198 2.54 1.784.451.456.818 1.161 1.078 1.861.168.452.315.9.374 1.263l.002.016c.01.118.092.664-.012 1.399q-.02.135-.048.268c-.283 1.318-.889 2.306-1.734 3.044q-.274.24-.562.448a7.1 7.1 0 0 0 1.848-.881 6.1 6.1 0 0 0 1.756-1.833.21.21 0 0 1 .183-.101q.08 0 .163-.003c.74-.045 2.586-.649 3.54-.978 1.313-.453 3.473-1.752 5.452-2.539.732-.292 1.427-.517 2.021-.531a10.36 10.36 0 0 1 5.821 1.597c1.886 1.179 3.126 2.722 3.75 3.637l.014.023q.139.269.251.578c.008.021.251.959.255.979.092.503.121 1.008.017 1.459-.503 2.175-2.132 4.632-4.518 6.826a24.6 24.6 0 0 1-4.368 3.197 24.5 24.5 0 0 0 6.236-3.71c2.19-1.807 3.731-3.855 4.448-5.768a4.4 4.4 0 0 0 .213-.796.21.21 0 0 1 .193-.178q.237-.019.504-.069c3.052-.577 5.317-.059 6.981.921 1.996 1.174 3.124 2.982 3.697 4.211.01.02.065.273.115.373l.002.004s.644 1.317-.855 3.347c-.67.906-1.694 1.924-3.271 3.01a51 51 0 0 1-5.254 3.196q-1.095.573-2.179 1.063a41 41 0 0 0 2.297-.81c1.838-.706 3.704-1.569 5.65-2.603 2.404-1.278 3.774-2.569 4.583-3.679.355-.488.607-.953.783-1.387a.214.214 0 0 1 .223-.133 5.3 5.3 0 0 1 1.442.382c.39.165.755.344 1.074.585.886.667 1.548 1.554 1.832 2.65.341 1.324.264 2.809-.331 4.296q-.008.018-.02.037l-.022.033a.2.2 0 0 1-.016.069 8.6 8.6 0 0 1-.658 1.251 8.7 8.7 0 0 0 1.315-1.549.22.22 0 0 1 .15-.095c3.222-.411 5.023-1.863 5.91-3.069a390 390 0 0 0-3.947-5.258c-1.023-1.33-1.843-2.394-2.077-2.575a.444.444 0 0 1-.143-.597.436.436 0 0 1 .586-.165c.295.14 1.424 1.038 2.812 2.189a428 428 0 0 1 5.646 4.798c1.056.272 2.357.559 3.107.538 3.125-.089 5.764-2.652 6.503-3.939.291-.506.505-1.289.661-2.048l-15.791-15.966a.583.583 0 0 1-.036-.818.575.575 0 0 1 .808-.047l17.638 14.595.008.007q.045.04.086.085c1.386.161 3.17.214 4.386-.352.569-.265 1.639-1.164 2.648-2.229 1.008-1.066 1.957-2.298 2.269-3.248.244-.742.229-1.864.141-2.896a2877 2877 0 0 1-11.944-10.339c-2.577-2.247-4.716-4.133-5.453-4.834a.563.563 0 0 1-.053-.785.553.553 0 0 1 .775-.063c.794.622 3.087 2.28 5.846 4.255 4.822 3.45 11.032 7.838 13.104 9.301a5.48 5.48 0 0 0 3.716-1.556c1.392-1.335 2.772-3.074 3.379-5.306.594-2.188.335-4.134-.009-5.269-.14-.459-.287-.78-.398-.916-2.72-3.324-13.285-13.943-17.959-18.145a.22.22 0 0 1-.067-.202.22.22 0 0 1 .134-.163s2.305-.877 3.179-1.166c1.679-.555 3.514-1.38 5.189-2.631 2.654-1.981 5.658-3.398 8.551-3.754 2.15-.264 4.231.047 6.045 1.147l.006.004a.22.22 0 0 0 .302-.065.215.215 0 0 0-.065-.297l-.005-.004c-1.86-1.287-4.055-1.747-6.36-1.605q-.22.014-.442.035a.21.21 0 0 1-.217-.131.22.22 0 0 1 .059-.25q.07-.059.138-.119a13 13 0 0 0 1.657-1.728c.891-1.138 1.499-2.333 1.845-3.526a8.2 8.2 0 0 0 .289-3.267c-.021 1.714-.64 3.448-1.815 5.098a14.4 14.4 0 0 1-1.785 2.033 18.5 18.5 0 0 1-1.946 1.623q-.644.465-1.367.904l-.047.021c-1.93.599-3.854 1.546-5.652 2.726-1.596 1.049-3.317 1.697-4.878 2.111-1.768.468-3.973 1.325-4.92 1.371a.2.2 0 0 1-.142-.046c-.935-.747-5.65-4.769-8.822-7.048a.2.2 0 0 1-.069-.081.2.2 0 0 1-.021-.104.22.22 0 0 1 .103-.178 26.6 26.6 0 0 0 4.058-3.025c2.539-2.299 4.81-5.291 5.628-9.085l.005-.015c.004-.016-.006-.031-.021-.036s-.034.004-.039.02l-.005.016c-1.038 2.753-2.857 4.902-4.92 6.599-2.901 2.386-6.311 3.688-8.619 4.461q-.446.149-.824.273l-.023.006-5.463 1.129a.21.21 0 0 1-.185-.05.22.22 0 0 1-.071-.179c.038-.492.054-1.008.041-1.539-.049-1.824-.412-3.821-1.545-5.695m52.817 18.326-.031.01.027-.008zm1.812-6.925a13.7 13.7 0 0 0-.438-4.167c-.432-1.646-1.241-3.532-2.542-5.65l-.005-.009a.11.11 0 0 0-.149-.041.106.106 0 0 0-.042.144l.005.008a23.6 23.6 0 0 1 1.771 4.744c.226.893.36 1.712.449 2.455.114.949.148 1.772.111 2.468a13.5 13.5 0 0 1-.293 2.632c-.18.895-.455 2.065-.929 3.968l-.004.011c-.02.069.02.142.089.163a.133.133 0 0 0 .167-.087l.003-.011c.667-1.86 1.076-3 1.33-3.884.3-1.042.388-1.722.477-2.744m-64.697 4.405a.96.96 0 0 1-.629.413c-.822.14-1.605.248-2.35.277a15.7 15.7 0 0 1-3.537-.299 16 16 0 0 1-2.374-.671l.025.009a16.4 16.4 0 0 0 2.349.662 15.7 15.7 0 0 0 3.537.299c.745-.029 1.528-.137 2.35-.277a.96.96 0 0 0 .631-.417zm-2.458-7.186c.571.43.937.963 1.176 1.545.395.966.336 2.05.214 2.972-.07.526-.174.991-.264 1.333a.22.22 0 0 1-.178.159l-.715.092c-.686.092-1.334.17-1.952.222-1.243.105-2.34.127-3.312.071a18 18 0 0 1-2.934-.4q.29.151.644.313c.849.387 1.944.779 3.306 1.057a15.3 15.3 0 0 0 3.485.296c.738-.029 1.511-.136 2.322-.274a.74.74 0 0 0 .58-.515s.276-1.011.23-2.295c-.038-1.071-.251-2.319-.955-3.291a3.6 3.6 0 0 0-1.647-1.285m42.671 4.81-.021.012zm15.993-3.55c.102.03.211.021.305-.023h.002a.43.43 0 0 1-.31.022zm-5.529-3.379.014-.014zm-27.678.275.016-.01zm-11.213.452-.001.022zl.002-.024zm-1.343-3.865v.052zm42.75-5.035.002.065.001.011zm9.434 19.995-.01-.004-.002-.001.014.006zm.273-.003a.4.4 0 0 0 .078-.049l.003-.002a.4.4 0 0 1-.084.052zm-.289-.004.002.001zm.376-.052a.3.3 0 0 0 .057-.063l.003-.004a.4.4 0 0 1-.062.07zm.064-.074-.002.004zm.893-2.491-.01.029zm-63.908.046-.001.004zm-9.094-.282-.023-.008zl.024.009zm-.254-.1q-.293-.118-.555-.239c-1.335-.607-2.002-1.159-2.002-1.159s.667.552 2.002 1.159q.273.125.578.248zm73.466-.288.096-.293-.104.319zm-77.133-.022.002-.014-.003.017zm13.256-.334-.006.042.004-.021zm63.988.015.029-.093.007-.023-.043.14zm-63.966-.183-.003.023.001-.012zm.003-.024.009-.083-.011.095zm.011-.107.01-.099-.01.11zm64.069-.067.019-.064-.025.086zm-64.056-.057q.009-.102.016-.208l-.018.22zm.018-.236.006-.108-.007.122zm64.136-.049.006-.024q-.007.023-.012.048zm.116-.455.005-.022-.009.044zm.015-.066-.004.022zm-76.944-.067-.026.065.013-.032zm12.696.054v-.051.066zm39.891-.071.185-.11.021-.013q-.113.069-.227.135zm-52.546-.079.027-.064.013-.032-.054.128zm.067-.159.053-.125.013-.032-.08.189zm52.829.027.04-.026.021-.012-.082.051zm24.096-.126-.003.021zm-23.769-.082.02-.013.02-.013-.061.04zm.142-.094q.338-.225.663-.468c2.31-1.726 4.889-3.021 7.423-3.544l.017-.004c-2.54.522-5.125 1.818-7.44 3.548q-.339.252-.683.482zm-53.112-.161.106-.246.026-.061-.146.338zm.368-.847c.208-.474.415-.933.619-1.387l.101-.227c-.244.547-.494 1.099-.746 1.674zm10.48-.088.001.023-.001-.011zm-.001-.068v.022zm-.001-.035-.002-.046.003.058zm-.003-.08-.007-.114.007.126zm66.093-.054.013-.144-.015.168zm-66.102-.083-.007-.092.008.103zm-.01-.115.001.012zm-.035-.274-.015-.092.017.103zm-.022-.125.005.022-.002-.011zm-.006-.035a4 4 0 0 0-.201-.68c-.377-.917-1.09-1.702-2.474-2.126 1.384.424 2.097 1.209 2.474 2.126a3.7 3.7 0 0 1 .203.692zm64.93-.519-.005-.131q.004.075.005.149zm-.006-.169.001.02zm-74.495-.195c.404-.902.799-1.792 1.185-2.742.247-.608.491-1.239.731-1.909l.01-.028c-.244.681-.49 1.321-.741 1.937a88 88 0 0 1-1.235 2.855zm67.045-.168-.002-.001-.003-.001.008.002zm-.012-.005a.4.4 0 0 1-.088-.043 8 8 0 0 0-.474-.266l-.011-.006q.248.129.485.272a.5.5 0 0 0 .09.044zm.339-.02-.005.003.002-.002zm.004-.002a.4.4 0 0 0 .141-.117l.001-.001a.5.5 0 0 1-.144.119zm.145-.123.02-.027-.021.03zm-1.081-.181-.022-.01-.011-.006.043.022zm-.054-.026q-.3-.15-.607-.274l-.011-.005q.318.129.629.284zm-.652-.292a8 8 0 0 0-.355-.131l-.011-.004q.19.065.377.139zm8.667-.164.002.022zm-9.303-.057a8 8 0 0 0-.638-.167l-.011-.003q.334.072.661.172zm-.684-.177a7 7 0 0 0-.325-.064l-.012-.002q.175.03.349.068zm-.406-.078-.047-.007-.011-.003q.034.007.07.012zm-.129-.02-.011-.002-.012-.001.035.004zm-.211-.03a10 10 0 0 0-.748-.066h-.013q.39.018.773.068zm10.516-1.101-.029-.155.032.174zm-.037-.194.003.02zm-51.506-.251-.002.024zm11.271-.422.192-.128-.016.011-.192.127zm-11.242-.103.001-.048-.002.072zm11.466-.047.096-.066-.016.011-.096.066zm-11.463-.05-.001.024zm39.085-.282.088-.098-.012.015-.088.097zm-27.141-.002.114-.08-.016.011-.114.08zm27.254-.123.121-.14-.012.013-.122.141zm-26.947-.098q.298-.217.596-.448l-.016.013a26 26 0 0 1-.596.447zm27.234-.24.011-.015zl-.012.014zm-26.59-.246.194-.151-.016.013-.194.151zm26.862-.103.113-.151-.011.015-.112.15zm-26.62-.086a25 25 0 0 0 2.02-1.785l-.014.015q-.355.345-.715.674-.636.575-1.307 1.108zm-33.864-.043.01-.028.01-.028-.03.083zm60.656-.104.03-.041-.01.014-.03.041zm-60.587-.091q.221-.63.44-1.312a58 58 0 0 1 .529-1.59l.015-.044c-.199.569-.38 1.119-.544 1.634q-.224.697-.45 1.34zm60.995-.519.078-.126-.008.015-.078.125zm.104-.168q.075-.125.147-.253l-.009.015q-.072.127-.147.253zm-25.225-.917.189-.19-.014.015-.19.189zm-16.598-.194v.023zm16.918-.129.029-.03-.015.014-.029.031zm.057-.06q.167-.171.329-.348l-.015.016q-.162.175-.328.347zm.357-.379.084-.092-.013.016-.085.092zm.113-.123q.342-.378.671-.778l-.013.016q-.327.397-.672.778zm-35.644-.72-.032.088.017-.044zm36.395-.156.092-.115-.013.016-.092.115zm24.781-.068.012-.048-.015.064zm7.878-.014.001.004zm-32.54-.067q.341-.43.659-.883l-.011.018q-.32.452-.662.883zm24.685-.014.027-.113-.03.128zm.054-.24-.003.016zm.055-.286-.005.031.003-.015zm.007-.031.008-.049-.012.064zm-43.403-.002a5 5 0 0 0-.063-.243l-.002-.012.069.267zm43.418-.094-.005.032.002-.017zm.008-.048-.005.032.002-.016zm.005-.032.004-.031-.007.047zm.011-.079.016-.11-.018.127zm-43.537-.106.007.024-.003-.012zm-.01-.034a6 6 0 0 0-.09-.29l-.003-.012q.05.157.097.314zm19.452-.04.024-.034-.012.017-.024.035zm-36.727-.121q.083-.214.169-.428l.009-.022q-.1.248-.195.495zm36.787.034q.12-.177.237-.357l-.012.019q-.116.179-.237.355zm.26-.393q.005-.01.012-.017zl-.012.018zm23.845-.049-.001.015zm-60.687-.11.055-.135.009-.023-.073.18zm36.945-.003.102-.165-.012.019-.101.164zm-20.145-.167-.001.007v-.003zm20.27-.035.164-.277-.011.018q-.081.14-.165.277zm.186-.315.032-.056-.011.019-.032.056zm.054-.093.011-.019zm.064-.113-.011.019zm22.838-.925v-.022l.001.033zm-.001-.044-.008-.132.008.143zm-22.312-.056-.009.02zm22.3-.194a.2.2 0 0 0-.001.052l.002.022-.001-.011-.001-.011a.2.2 0 0 1 .001-.052m-59.084-.538-.028.056.014-.028zm.085-.166c.352-.683.72-1.305 1.101-1.813l.008-.011c-.389.518-.764 1.153-1.124 1.852zm37.332-.679-.014.042.007-.021zm.015-.042q.025-.074.048-.15l-.055.171zm.063-.192q.207-.652.356-1.339-.151.699-.363 1.36zm-36.179-1.069.155-.186.008-.009a6 6 0 0 0-.171.205zm.242-.284.028-.032.01-.011-.048.054zm.068-.074.02-.021.01-.011-.04.042zm.05-.053.041-.041.01-.01-.062.062zm.071-.072q.16-.162.339-.317l.011-.01q-.186.162-.36.337zm.408-.377q.186-.16.389-.315l.012-.009q-.216.164-.413.334zm.426-.343c.679-.513 1.479-.982 2.323-1.419 2.181-1.129 4.661-2.012 6.46-2.679 4.109-1.525 6.407-2.792 8.402-3.489.631-.22 1.224-.377 1.85-.448l22.538-2.273c1.516-.176 4.976-1.084 9.084-2.309l.062-.018c-4.135 1.234-7.622 2.15-9.146 2.327l-22.538 2.273c-.626.071-1.219.228-1.85.448-1.995.697-4.293 1.964-8.402 3.489-1.799.667-4.279 1.55-6.46 2.679-.849.44-1.654.912-2.335 1.428zm50.842-12.671q.853-.255 1.703-.516l.064-.02q-.93.285-1.829.554zm1.896-.576.193-.059.065-.02-.322.099zm.581-.178.586-.183.065-.021-.716.224zm1.089-.34-.176.055.088-.027zm.262-.083.088-.027.088-.028-.264.083zm.351-.111.088-.027.089-.029-.264.084zm.353-.111a386 386 0 0 0 9.857-3.263 206 206 0 0 0 6.274-2.284l.043-.017a201 201 0 0 1-6.317 2.301 390 390 0 0 1-9.945 3.291zm16.26-5.597q.507-.198.879-.349c1.255-.522 3.658-1.662 6.637-3.109l.085-.041c-3.018 1.467-5.456 2.623-6.722 3.15q-.388.159-.922.365zm7.772-3.583q.86-.418 1.777-.867c3.178-1.469 6.901-3.202 10.722-4.974l.409-.19c-3.964 1.838-7.84 3.643-11.131 5.164q-.962.471-1.862.909zm13.73-6.411q.513-.24 1.028-.476l.206-.096-1.646.762zm1.645-.763.206-.094.205-.096-.617.286zm2.258-1.043.408-.189.205-.094-.818.377zm1.223-.564 1.011-.465.201-.093-1.416.652zm2.013-.926a949 949 0 0 1 5.89-2.683 58 58 0 0 1 1.621-.7l.034-.014c-.501.207-1.041.437-1.655.714-1.901.858-3.959 1.796-6.09 2.775zm7.613-3.425.068-.028.034-.014-.136.056zm.982-.399c.552-.224 1.089-.441 1.673-.695-.629.273-1.203.505-1.801.747z" clip-rule="evenodd" fill-rule="evenodd"/>
        <path fill="#4E62A8" d="M132.347 225.463c-.446-.5-.916-1.133-1.044-1.408-.222-.475-.213-.531.172-1.11.222-.335.405-.735.405-.888 0-.439.389-.329.887.252.832.969 1.296 3.886.639 4.014-.143.028-.591-.337-1.059-.86m-6.672-3.401c.324-.331.212-.991-.239-1.409-.234-.216-.98-.811-1.659-1.322-1.498-1.126-3.041-2.61-3.645-3.504-.505-.748-.899-.94-1.385-.674-.387.213-.597 0-.601-.607 0-.445.675-.773 1.877-.908 1.764-.198 4.8 1.044 6.062 2.481 1.497 1.703 1.756 3.186.889 5.083-.447.978-.514 1.049-.982 1.049-.39 0-.461-.042-.317-.189m-13.589-6.455c-.189-.112-.271-.361-.272-.824-.004-1.055-.114-1.236-1.418-2.321-1.15-.958-3.401-3.418-4.269-4.665-.33-.475-.464-.546-1.03-.546-.777 0-1.037-.26-.969-.973.069-.738.553-.962 1.819-.842 1.656.156 2.9.873 4.912 2.828 2.567 2.494 3.406 4.443 2.708 6.286-.437 1.153-.838 1.44-1.481 1.057m-22.697-5.955c-.41-.465-1.499-2.974-1.687-3.893-.251-1.223-.035-1.666.814-1.666.9 0 1.475.357 1.715 1.063.26.768.261 3.421 0 4.188-.221.651-.461.739-.842.308m38.881-54.777c-1.83-2.24-3.034-2.965-4.879-2.938-1.107.018-1.861.216-3.434.907-.438.193-.578.206-.578.055 0-.352 1.14-1.752 1.932-2.376 1.13-.89 4.699-2.63 7.868-3.834a145 145 0 0 0 5.479-2.239c4.66-2.041 3.411-1.804 16.436-3.127 6.366-.647 11.957-1.252 12.424-1.345 4.574-.913 16.816-4.739 26.005-8.128 3.428-1.264 5.171-2.018 9.106-3.939 3.322-1.621 5.937-2.859 14.353-6.791 4.207-1.965 4.884-2.194 7.686-2.601 1.341-.195 2.472-.322 2.511-.281.102.104-17.199 8.985-22.235 11.414-7.61 3.67-11.695 5.452-17.98 7.84-4.319 1.642-6.258 2.586-7.24 3.525-1.121 1.074-1.232 1.583-.856 3.946.137.863-.293 1.41-1.365 1.738-1.27.389-4.674.595-8.288.503-3.716-.095-4.436-.225-6.578-1.189-2.042-.919-2.742-1.028-5.264-.816-2.956.248-7.772.882-9.654 1.27-2.699.557-6.477 2.009-8.622 3.313-.741.45-1.625 1.269-3.164 2.931-1.872 2.021-2.688 2.75-3.077 2.75-.059 0-.322-.265-.586-.588" clip-rule="evenodd" fill-rule="evenodd"/>
        <path fill="url(#a237ce25-dc33-4b7c-be7f-373f82cb330f)" d="M128.878 226.762c-.54.247-1.455.685-2.237 1.134-.43.251-.815.488-1.08.721.242-.387.683-.86 1.179-1.317.97-.877 2.083-1.648 2.083-1.648a.524.524 0 0 1 .694.174c.297.417.573.671.837.885.496.4.992.626 1.697 1.091a.56.56 0 0 1 .254.428.56.56 0 0 1-.199.458s-1.388 1.041-2.799 1.806c-.782.425-1.553.757-2.093.816-.055.011-.099-.023-.11-.077-.011-.053.022-.105.066-.117.496-.151 1.135-.615 1.796-1.136a31 31 0 0 0 1.862-1.599c-.474-.25-.87-.438-1.234-.757a3.6 3.6 0 0 1-.716-.862m7.526-86.748q.214-.087.429-.164c1.19-.444 2.116-.715 2.414-.738.859-.064 1.785-.133 2.754-.207l20.584-1.938c1.487-.157 4.958-1.077 9.057-2.252 4.099-1.176 8.815-2.629 12.848-3.889 3.813-1.19 7.008-2.2 8.485-2.733 1.653-.576 5.256-2.089 9.564-3.9 7.251-3.179 17.013-7.515 24.418-10.675l.573 1.306c-7.603 3.428-17.718 8.165-24.991 11.523-3.901 1.91-7.14 3.465-8.672 4.101-1.311.535-3.989 1.54-7.272 2.683a400 400 0 0 1-10.997 3.623c-5.598 1.751-10.721 3.177-12.661 3.401l-22.544 2.273c-.629.071-1.213.228-1.852.449-1.994.697-4.286 1.964-8.396 3.489-1.796.666-4.275 1.551-6.457 2.679-1.355.699-2.59 1.48-3.394 2.391-.672.753-1.289 1.877-1.873 3.118-.86 1.827-1.598 3.903-2.127 5.591a46 46 0 0 1-1.278 3.499c-1.025 2.531-2.116 4.649-3.284 7.668-.099.235.011.524.122.845.242.687.705 1.423 1.3 2.124.914 1.094 2.159 2.099 3.482 2.667.925.402 2.545.611 4.132.492 1.344-.102 2.699-.4 3.504-1.221 1.069-1.1 2.644-2.857 4.264-4.683a603 603 0 0 0 5.256-6.037c.43-.905.904-2.15 1.146-3.584.298-1.733.309-3.694-.452-5.683-.055-.095-.011-.213.089-.26a.186.186 0 0 1 .253.086c1.234 1.959 1.631 4.059 1.686 5.971.011.541-.011 1.064-.044 1.563l5.465-1.13c.254-.081.529-.173.816-.273 2.291-.766 5.674-2.056 8.561-4.423 2.028-1.673 3.824-3.792 4.849-6.508a.25.25 0 0 1 .308-.165.256.256 0 0 1 .165.304c-.837 3.841-3.129 6.873-5.696 9.201a27 27 0 0 1-4.088 3.049c3.173 2.28 7.889 6.307 8.826 7.054.936-.045 3.129-.9 4.881-1.364 1.532-.408 3.24-1.048 4.815-2.083 1.807-1.192 3.758-2.146 5.697-2.751a17 17 0 0 0 1.355-.895 18 18 0 0 0 1.929-1.604 14 14 0 0 0 1.752-2.002c1.289-1.809 1.895-3.724 1.763-5.597-.022-.094.044-.181.143-.195a.17.17 0 0 1 .187.147c.265 1.285.21 2.638-.187 4.003-.353 1.216-.97 2.437-1.884 3.598a12.2 12.2 0 0 1-1.686 1.757l-.132.121c.143-.014.297-.025.44-.035 2.359-.145 4.595.328 6.502 1.642a.43.43 0 0 1 .121.598.43.43 0 0 1-.595.128c-1.774-1.074-3.802-1.375-5.906-1.117-2.854.351-5.829 1.754-8.452 3.714-1.697 1.265-3.548 2.1-5.245 2.662-.87.288-3.173 1.163-3.173 1.163 4.683 4.207 15.283 14.871 18.005 18.2.396.49 1.289 3.152.429 6.349-.617 2.274-2.027 4.046-3.449 5.406-1.289 1.242-2.743 1.596-3.922 1.617a2351 2351 0 0 1-13.157-9.342c-2.766-1.979-5.069-3.642-5.862-4.263a.33.33 0 0 0-.474.036.335.335 0 0 0 .033.483c.728.697 2.865 2.583 5.444 4.83 4.363 3.802 9.95 8.618 12.01 10.396.099 1.087.121 2.285-.143 3.072-.639 1.945-3.868 5.061-5.025 5.604-1.278.592-3.151.535-4.583.362a1 1 0 0 0-.122-.13l-17.641-14.596a.367.367 0 0 0-.518.025.376.376 0 0 0 .022.517l15.878 16.051c-.154.819-.385 1.68-.705 2.227-.76 1.324-3.471 3.955-6.677 4.048-.783.022-2.138-.277-3.218-.558a454 454 0 0 0-5.685-4.828c-1.378-1.145-2.491-2.039-2.766-2.162a.226.226 0 0 0-.309.081c-.066.107-.022.245.077.308.232.173 1.08 1.257 2.127 2.621a362 362 0 0 1 4.044 5.388c-.871 1.261-2.733 2.85-6.149 3.287-.639.969-1.52 1.874-2.688 2.646a9.3 9.3 0 0 0 1.664-2.553s.44-.945.54-2.127c.066-.82-.033-1.671-.166-2.169-.275-1.047-.903-1.894-1.752-2.531-.308-.23-.661-.4-1.024-.558a5.2 5.2 0 0 0-1.389-.366 6.8 6.8 0 0 1-.815 1.433c-.816 1.128-2.204 2.443-4.65 3.741a51 51 0 0 1-5.675 2.614 39.4 39.4 0 0 1-5.939 1.786 39.5 39.5 0 0 0 5.653-2.434 51 51 0 0 0 5.222-3.182c1.554-1.07 2.568-2.07 3.229-2.961 1.399-1.9.826-3.124.826-3.124a3 3 0 0 1-.11-.377c-.562-1.201-1.664-2.97-3.614-4.118-1.631-.957-3.846-1.459-6.832-.894a5 5 0 0 1-.529.072 5 5 0 0 1-.22.835c-.738 1.942-2.292 4.024-4.518 5.86-2.49 2.052-5.741 3.823-9.377 4.776a24.6 24.6 0 0 0 7.229-4.593c2.347-2.159 3.955-4.574 4.451-6.715.099-.423.033-.983-.011-1.369-.044-.324-.253-.941-.253-.945a4 4 0 0 0-.232-.552c-.617-.899-1.84-2.418-3.691-3.577a10.17 10.17 0 0 0-5.708-1.563c-.573.013-1.234.234-1.939.515-1.983.789-4.154 2.089-5.465 2.542-.97.336-2.843.944-3.593.989-.066.005-.12.006-.187.005a6.3 6.3 0 0 1-1.807 1.896c-1.09.74-2.292 1.066-3.438 1.287l-.022.006c.672-.27 1.311-.685 1.906-1.203.816-.709 1.4-1.659 1.664-2.926.022-.084.033-.169.044-.254.11-.707.022-1.234.011-1.349-.055-.352-.198-.784-.363-1.221-.243-.67-.595-1.347-1.025-1.784-.562-.576-1.488-1.17-2.49-1.749-1.543-.889-3.295-1.72-4.518-2.311a15 15 0 0 0-1.477-.61c-1.267-.458-2.545-.795-3.867-1.261-.64-.233-1.257-.499-1.83-.865a11.4 11.4 0 0 1-2.203-1.884c-.64-.684-1.19-1.403-1.741-2.15-.342-.455-.65-.904-.97-1.342a42 42 0 0 0-1.73-1.542c-.01-.008-.01-.014-.022-.022l-46.059-46.783 7.603-10.204c21.95 6.68 56.516 14.579 60.45 14.879 4.507.344 15.448-9.776 26.599-13.796 2.149-.776 6.16.636 8.97 1.834 1.829.783 5.432 2.795 8.617 4.642m-18.501 77.093a7.7 7.7 0 0 0-1.422.811c-.418.301-.815.647-1.112 1.084-.463.673-.673 1.5-.342 2.527.022.057 0 .125-.055.151s-.132-.001-.154-.06c-.617-1.108-.529-2.12-.155-3.002.849-1.984 3.339-3.206 3.339-3.206a.77.77 0 0 1 .97.354c.54.892 1.168 1.57 1.95 2.281.518.466 1.113.93 1.818 1.464.562.435 1.19.934 1.918 1.468a.9.9 0 0 1 .385.584.9.9 0 0 1-.165.68s-1.267 1.533-3.493 2.144a6.9 6.9 0 0 1-3.879-.057.09.09 0 0 1-.077-.109.095.095 0 0 1 .11-.076 6.47 6.47 0 0 0 3.449-.763 7.3 7.3 0 0 0 1.146-.765c.287-.229.529-.459.727-.665a21 21 0 0 1-1.3-.827 13.6 13.6 0 0 1-1.983-1.674 9.7 9.7 0 0 1-1.675-2.344m-13.443-7.328c-.331.185-.749.431-1.168.724-.595.405-1.223.878-1.697 1.433-.683.78-1.091 1.667-.672 2.631a.12.12 0 0 1-.044.163.123.123 0 0 1-.166-.046c-.727-1.032-.473-2.188.144-3.269 1.113-1.944 3.526-3.534 3.526-3.534a.86.86 0 0 1 1.146.292c.429.596.815 1.075 1.157 1.503.418.535.804.957 1.201 1.355.496.507 1.002.969 1.631 1.532.352.312.727.662 1.168 1.063a.78.78 0 0 1 .154 1.068s-.827 1.005-2.524 1.828c-.771.374-1.696.705-2.82.895-.055.015-.111-.013-.122-.067-.022-.051.011-.107.067-.122.98-.444 1.741-.979 2.369-1.494a9 9 0 0 0 1.3-1.29c-.254-.159-.474-.309-.694-.458-.772-.528-1.378-.983-1.94-1.524a10 10 0 0 1-1.355-1.62 15 15 0 0 1-.661-1.063m-19.625-.592s-.628-1.094-.97-2.296c-.143-.521-.264-1.051-.22-1.513.132-1.226-.374-1.748-1.102-1.88-.848-.155-2.093.355-2.556.804a1.64 1.64 0 0 0-.518.954c-.1.533.022 1.091.165 1.477.022.055.077.086.132.069a.097.097 0 0 0 .067-.129c-.055-.303-.089-.709 0-1.1.066-.31.231-.599.529-.803.33-.228 1.068-.428 1.652-.371a.66.66 0 0 1 .419.171c.11.11.044.295-.033.571-.165.601-.143 1.33-.066 2.052.154 1.445.661 2.823.661 2.823a1.01 1.01 0 0 0 1.333.508c.507-.229.727-.829.507-1.337m10.545-1.793-.022.094c.011-.032.011-.063.022-.094m92.394-32.95c.672-1.867 1.08-3.012 1.333-3.899.309-1.058.397-1.749.485-2.789.055-1.115 0-2.546-.441-4.236-.441-1.664-1.256-3.57-2.567-5.71a.322.322 0 1 0-.562.314 23.7 23.7 0 0 1 1.752 4.7c.22.884.352 1.694.441 2.429.121.934.154 1.746.11 2.432a13.3 13.3 0 0 1-.287 2.598c-.176.893-.451 2.06-.925 3.958a.345.345 0 0 0 .231.434.34.34 0 0 0 .43-.231m-64.626-3.689c.088-.336.187-.791.253-1.305.122-.888.188-1.931-.198-2.861-.375-.917-1.091-1.702-2.468-2.126 1.642.048 2.655.743 3.305 1.654.739 1.009.959 2.302 1.003 3.412.044 1.321-.242 2.361-.242 2.361a.94.94 0 0 1-.75.669c-.815.141-1.597.248-2.347.278-.495.02-.969.009-1.421-.022a16 16 0 0 1-2.116-.278 15.7 15.7 0 0 1-3.349-1.071c-1.334-.609-2.006-1.16-2.006-1.16s1.609.673 4.397.832c.958.057 2.049.033 3.283-.071.617-.05 1.257-.129 1.94-.22.231-.031.474-.059.716-.092" clip-rule="evenodd" fill-rule="evenodd"/>
        <path fill="#AF050F" d="m26.434 145.558.22-.292s38.29 36.453 48.66 43.002c3.779 2.388 17.079 7.589 22.093 9.05 3.25.948 10.567-.63 13.321.348 3.637 1.29 5.884 4.519 9.763 6.36 2.314 1.103 6.204.69 9.08 2.322 1.818 1.034 5.366 5.025 7.757 6.99 3.074 2.529 7.768 6.882 8.738 7.346 1.73.825 2.964 1.31 4.022.757 1.763-.927 2.953-2.037 2.633-3.547-.297-1.444-14.071-14.431-13.784-17 0 .095.044.189.11.259l15.878 16.051c-.154.82-.385 1.68-.705 2.227-.76 1.324-3.471 3.955-6.677 4.048-.783.022-2.138-.277-3.218-.557a439 439 0 0 0-5.686-4.829c-1.377-1.144-2.49-2.039-2.765-2.162a.226.226 0 0 0-.309.081c-.066.107-.022.245.077.308.232.173 1.08 1.257 2.127 2.621a362 362 0 0 1 4.044 5.388 6 6 0 0 1-.441.568c-.154.163-.331.354-.562.555-1.047.947-2.689 1.847-5.124 2.162l-.022.002s1.686-2.801 1.366-4.699c-.848-4.942-5.167-5.499-5.167-5.499s-.441-1.563-1.168-2.564c-1.069-1.487-3.075-3.967-5.818-4.859-2.204-.717-7.108-.223-7.108-.223s-1.895-3.494-3.404-4.703c-1.653-1.327-4.199-2.991-6.546-3.259s-7.548 1.656-7.548 1.656l-5.597 2.947s.066-5.05-3.868-6.565c-3.493-1.342-12.749-2.865-12.749-2.866a8 8 0 0 1-.738-.353 5 5 0 0 1-.452-.269 9 9 0 0 1-.727-.514 15 15 0 0 1-1.421-1.319l-.034-.032c-.639-.685-4.738-4.803-4.738-4.803zm123.18 45.532c.749.711 2.876 2.584 5.432 4.813 4.364 3.803 9.951 8.619 12.011 10.396.099 1.087.121 2.286-.143 3.072-.639 1.945-3.868 5.062-5.025 5.605-1.278.591-3.151.534-4.584.361a1 1 0 0 0-.121-.13l-17.641-14.596a.37.37 0 0 0-.298-.09c1.091-.285 5.003 1.684 9.664 3.749 3.768 1.671 7.383 4.369 8.573 4.938 1.73.825 2.964 1.31 4.01.757 1.775-.928 2.954-2.037 2.645-3.547-.286-1.424-14.38-12.721-14.523-15.328m.408-.556c1.906-.82 9.531 2.081 11.493 2.669 2.258.679 6.677 4.146 10.005 6.008.892.498 2.975.852 4.958-2.261-.011.063-.033.125-.044.187-.617 2.273-2.027 4.045-3.449 5.405-1.289 1.242-2.743 1.596-3.923 1.617a2398 2398 0 0 1-13.156-9.342c-2.766-1.979-5.069-3.641-5.862-4.263-.011-.006-.011-.013-.022-.02m7.708-14.575c.544.434-.034 1.189-1.188.45-5.05-3.242-11.889-6.545-14.479-5.68-3.375 1.129-7.424 4.763-10.437 8.75-3.683 4.878-8.129 5.955-14.573 4.655-5.29-1.066-9.99-6.878-7.702-12.996 0 0 .461 1.979 1.127 3.134 1.339 2.327 3.261 4.547 6.511 5.298 2.502.579 6.874.759 8.525-.872 5.952-5.879 11.028-12.623 11.028-12.623 4.807-.732 7.62-1.538 7.62-1.538 4.041 3.335 9.431 8.112 13.568 11.422" clip-rule="evenodd" fill-rule="evenodd"/>
        <path fill="#AF050F" d="M243.541 48.331a2.3 2.3 0 0 0-.781-1.718l-2.788-2.452a2.28 2.28 0 0 0-1.831-.545L2.146 77.542a2.296 2.296 0 0 0-1.964 2.3l.698 64.91a2.3 2.3 0 0 0 .816 1.733l2.762 2.33a2.28 2.28 0 0 0 1.796.516l235.588-33.702a2.296 2.296 0 0 0 1.967-2.283z" clip-rule="evenodd" fill-rule="evenodd"/>
        <path fill="url(#be18ae93-ee59-4c65-bf4c-f4c4e02d9581)" d="M238.997 46.37 3.027 80.286l.668 64.922 235.609-33.695zM5.833 82.703l.611 59.29 230.062-32.903-.276-59.493z" clip-rule="evenodd" fill-rule="evenodd"/>
        <path fill="url(#8d940274-7506-48d6-b535-dd04d292373c)" d="m168.413 65.766 9.342-1.34 8.518 30.124 7.353-32.404 8.004-1.15 8.097 29.666 6.721-31.793 9.337-1.342-10.333 48.464-10.213 1.455-7.243-29.065-6.971 31.062-9.478 1.361zm-9.961 48.525-17.46-44.431-9.184 1.162-15.36 49.146 9.584-1.363 3.348-11.08 15.089-2.171 3.707 10.058zm-26.686-15.24 9.952-1.423-5.335-15.361zM82.96 86.379l-11.241 1.64-.13-8.35 32.02-4.597.13 8.277-11.285 1.645.593 38.535-9.478 1.36zm-55.577-.362.455 29.094c.08 3.686 1.582 9.473 8.906 8.386 6.22-.923 7.74-7.128 7.752-10.784l-.455-29.088 9.334-1.34.455 29.094c.178 6.753-3.673 18.278-16.935 20.211-16.18 2.359-18.39-9.494-18.526-15.13l-.455-29.107z" clip-rule="evenodd" fill-rule="evenodd"/>
        <defs fill="none">
            <linearGradient gradientUnits="userSpaceOnUse" y2="62.263" x2="112.559" y1="29.149" x1="113.211" id="80f68eee-b5c4-4200-b5c1-1ed0cbf3ba7b">
                <stop stop-color="#ECEDF1"/>
                <stop stop-color="#E0E1EA" offset=".25"/>
                <stop stop-color="#D4D6E3" offset=".5"/>
                <stop stop-color="#C6C9DA" offset=".75"/>
                <stop stop-color="#BBBFDF" offset="1"/>
            </linearGradient>
            <linearGradient gradientUnits="userSpaceOnUse" y2="231.337" x2="119.511" y1="132.906" x1="118.375" id="a237ce25-dc33-4b7c-be7f-373f82cb330f">
                <stop stop-color="#FCF285"/>
                <stop stop-color="#FBEE59" offset="1"/>
            </linearGradient>
            <linearGradient gradientUnits="userSpaceOnUse" y2="145.202" x2="4.07" y1="80.286" x1="3.027" id="be18ae93-ee59-4c65-bf4c-f4c4e02d9581">
                <stop stop-color="#FCF0D1"/>
                <stop stop-color="#FCF0D1" offset=".15"/>
                <stop stop-color="#FBE9C6" offset=".3"/>
                <stop stop-color="#FBE0BA" offset=".45"/>
                <stop stop-color="#F9DCB4" offset=".6"/>
                <stop stop-color="#F9DBB3" offset=".75"/>
                <stop stop-color="#F8DCB6" offset=".9"/>
                <stop stop-color="#F8DCB6" offset="1"/>
            </linearGradient>
            <linearGradient gradientUnits="userSpaceOnUse" y2="124.887" x2="83.592" y1="79.317" x1="81.322" id="8d940274-7506-48d6-b535-dd04d292373c">
                <stop stop-color="#FFF2D4"/>
                <stop stop-color="#FFF2D4" offset=".35"/>
                <stop stop-color="#FDD3A3" offset="1"/>
            </linearGradient>
        </defs>
    </g>
</svg>
